<mxfile host="65bd71144e">
    <diagram name="Page-1" id="0">
        <mxGraphModel dx="1609" dy="563" grid="1" gridSize="10" guides="1" tooltips="1" connect="1" arrows="1" fold="1" page="1" pageScale="1" pageWidth="850" pageHeight="1100" math="0" shadow="0">
            <root>
                <mxCell id="0"/>
                <mxCell id="1" parent="0"/>
                <mxCell id="31" style="edgeStyle=none;html=1;exitX=0.5;exitY=1;exitDx=0;exitDy=0;" edge="1" parent="1" source="2">
                    <mxGeometry relative="1" as="geometry">
                        <mxPoint x="-220" y="120" as="targetPoint"/>
                    </mxGeometry>
                </mxCell>
                <mxCell id="32" style="edgeStyle=none;html=1;" edge="1" parent="1" target="2">
                    <mxGeometry relative="1" as="geometry">
                        <mxPoint x="-220" y="110" as="sourcePoint"/>
                    </mxGeometry>
                </mxCell>
                <mxCell id="2" value="main_setup_log_file" style="shape=ellipse;fillColor=#FF0000;strokeColor=#000000;" parent="1" vertex="1">
                    <mxGeometry x="-260" y="60" width="80" height="40" as="geometry"/>
                </mxCell>
                <mxCell id="3" value="main_configure_logging" style="shape=ellipse;fillColor=#FF0000;strokeColor=#000000;" parent="1" vertex="1">
                    <mxGeometry x="-190" y="160" width="80" height="40" as="geometry"/>
                </mxCell>
                <mxCell id="4" value="main_gmail_authenticate" style="shape=ellipse;fillColor=#FF0000;strokeColor=#000000;" parent="1" vertex="1">
                    <mxGeometry x="-370" y="250" width="80" height="40" as="geometry"/>
                </mxCell>
                <mxCell id="5" value="main_get_messages" style="shape=ellipse;fillColor=#FF0000;strokeColor=#000000;" parent="1" vertex="1">
                    <mxGeometry x="-120" y="240" width="80" height="40" as="geometry"/>
                </mxCell>
                <mxCell id="6" value="main_save_data_to_file" style="shape=ellipse;fillColor=#FF0000;strokeColor=#000000;" parent="1" vertex="1">
                    <mxGeometry x="100" y="160" width="80" height="40" as="geometry"/>
                </mxCell>
                <mxCell id="7" value="main_convert_html_to_text" style="shape=ellipse;fillColor=#FF0000;strokeColor=#000000;" parent="1" vertex="1">
                    <mxGeometry x="90" y="230" width="80" height="40" as="geometry"/>
                </mxCell>
                <mxCell id="8" value="main_process_message" style="shape=ellipse;fillColor=#FF0000;strokeColor=#000000;" parent="1" vertex="1">
                    <mxGeometry x="10" y="50" width="80" height="40" as="geometry"/>
                </mxCell>
                <mxCell id="9" value="main_main" style="shape=ellipse;fillColor=#FF0000;strokeColor=#000000;" parent="1" vertex="1">
                    <mxGeometry x="-260" y="380" width="80" height="40" as="geometry"/>
                </mxCell>
                <mxCell id="10" value="db_create_user" style="shape=ellipse;fillColor=#FF0000;strokeColor=#000000;" parent="1" vertex="1">
                    <mxGeometry x="130" y="330" width="80" height="40" as="geometry"/>
                </mxCell>
                <mxCell id="11" value="db_update_user_password" style="shape=ellipse;fillColor=#FF0000;strokeColor=#000000;" parent="1" vertex="1">
                    <mxGeometry x="110" y="390" width="80" height="40" as="geometry"/>
                </mxCell>
                <mxCell id="12" value="db_execute_sql" style="shape=ellipse;fillColor=#FF0000;strokeColor=#000000;" parent="1" vertex="1">
                    <mxGeometry x="120" y="450" width="80" height="40" as="geometry"/>
                </mxCell>
                <mxCell id="13" value="db_value_exists_in_column" style="shape=ellipse;fillColor=#FF0000;strokeColor=#000000;" parent="1" vertex="1">
                    <mxGeometry x="-170" y="450" width="80" height="40" as="geometry"/>
                </mxCell>
                <mxCell id="14" value="db_add_to_blacklist" style="shape=ellipse;fillColor=#FF0000;strokeColor=#000000;" parent="1" vertex="1">
                    <mxGeometry x="20" y="460" width="80" height="40" as="geometry"/>
                </mxCell>
                <mxCell id="15" value="db_save_to_database" style="shape=ellipse;fillColor=#FF0000;strokeColor=#000000;" parent="1" vertex="1">
                    <mxGeometry x="170" y="510" width="80" height="40" as="geometry"/>
                </mxCell>
                <mxCell id="16" value="pe_mark_as_processed" style="shape=ellipse;fillColor=#FF0000;strokeColor=#000000;" parent="1" vertex="1">
                    <mxGeometry x="-320" y="630" width="80" height="40" as="geometry"/>
                </mxCell>
                <mxCell id="17" value="pe_extract_email" style="shape=ellipse;fillColor=#FF0000;strokeColor=#000000;" parent="1" vertex="1">
                    <mxGeometry x="50" y="550" width="80" height="40" as="geometry"/>
                </mxCell>
                <mxCell id="18" value="pe_filter_email" style="shape=ellipse;fillColor=#FF0000;strokeColor=#000000;" parent="1" vertex="1">
                    <mxGeometry x="10" y="630" width="80" height="40" as="geometry"/>
                </mxCell>
                <mxCell id="19" value="pe_process_email_data" style="shape=ellipse;fillColor=#FF0000;strokeColor=#000000;" parent="1" vertex="1">
                    <mxGeometry x="-140" y="660" width="80" height="40" as="geometry"/>
                </mxCell>
                <mxCell id="20" value="ba_preprocess_text" style="shape=ellipse;fillColor=#FF0000;strokeColor=#000000;" parent="1" vertex="1">
                    <mxGeometry x="-70" y="770" width="80" height="40" as="geometry"/>
                </mxCell>
                <mxCell id="21" value="ba_determine_topic" style="shape=ellipse;fillColor=#FF0000;strokeColor=#000000;" parent="1" vertex="1">
                    <mxGeometry x="130" y="840" width="80" height="40" as="geometry"/>
                </mxCell>
                <mxCell id="22" value="" style="edgeStyle=orthogonalEdgeStyle;rounded=0;orthogonalLoop=1;jettySize=auto;html=1;" parent="1" source="8" target="19" edge="1">
                    <mxGeometry relative="1" as="geometry">
                        <Array as="points">
                            <mxPoint x="50" y="425"/>
                            <mxPoint x="-210" y="425"/>
                            <mxPoint x="-210" y="780"/>
                        </Array>
                    </mxGeometry>
                </mxCell>
                <mxCell id="23" value="" style="edgeStyle=orthogonalEdgeStyle;rounded=0;orthogonalLoop=1;jettySize=auto;html=1;" parent="1" source="9" target="4" edge="1">
                    <mxGeometry relative="1" as="geometry"/>
                </mxCell>
                <mxCell id="24" value="" style="edgeStyle=orthogonalEdgeStyle;rounded=0;orthogonalLoop=1;jettySize=auto;html=1;" parent="1" source="9" target="5" edge="1">
                    <mxGeometry relative="1" as="geometry"/>
                </mxCell>
                <mxCell id="25" value="" style="edgeStyle=orthogonalEdgeStyle;rounded=0;orthogonalLoop=1;jettySize=auto;html=1;" parent="1" source="9" target="8" edge="1">
                    <mxGeometry relative="1" as="geometry"/>
                </mxCell>
                <mxCell id="26" value="" style="edgeStyle=orthogonalEdgeStyle;rounded=0;orthogonalLoop=1;jettySize=auto;html=1;" parent="1" source="18" target="15" edge="1">
                    <mxGeometry relative="1" as="geometry"/>
                </mxCell>
                <mxCell id="27" value="" style="edgeStyle=orthogonalEdgeStyle;rounded=0;orthogonalLoop=1;jettySize=auto;html=1;" parent="1" source="19" target="13" edge="1">
                    <mxGeometry relative="1" as="geometry"/>
                </mxCell>
                <mxCell id="28" value="" style="edgeStyle=orthogonalEdgeStyle;rounded=0;orthogonalLoop=1;jettySize=auto;html=1;" parent="1" source="19" target="15" edge="1">
                    <mxGeometry relative="1" as="geometry"/>
                </mxCell>
                <mxCell id="29" value="" style="edgeStyle=orthogonalEdgeStyle;rounded=0;orthogonalLoop=1;jettySize=auto;html=1;" parent="1" source="19" target="18" edge="1">
                    <mxGeometry relative="1" as="geometry"/>
                </mxCell>
                <mxCell id="30" value="" style="edgeStyle=orthogonalEdgeStyle;rounded=0;orthogonalLoop=1;jettySize=auto;html=1;" parent="1" source="19" target="21" edge="1">
                    <mxGeometry relative="1" as="geometry"/>
                </mxCell>
            </root>
        </mxGraphModel>
    </diagram>
</mxfile>